# Blender 4.4.3
# www.blender.org
mtllib obstacle2.mtl
o obstacle2
v 48.000000 0.000000 -33.000000
v 52.000000 0.000000 -33.000000
v 52.000000 0.000000 -40.000000
v 48.000000 0.000000 -40.000000
v 48.000000 0.000000 -33.000000
v 48.000000 2.000000 -33.000000
v 52.000000 2.000000 -33.000000
v 52.000000 2.000000 -40.000000
v 48.000000 2.000000 -40.000000
v 48.000000 2.000000 -33.000000
vn -0.0000 -1.0000 -0.0000
vn -0.0000 1.0000 -0.0000
vn -0.0000 -0.0000 1.0000
vn -1.0000 -0.0000 -0.0000
vn 1.0000 -0.0000 -0.0000
vn -0.0000 -0.0000 -1.0000
s 0
usemtl obstacle2_material
f 1//1 5//1 4//1 3//1 2//1
f 6//2 7//2 8//2 9//2 10//2
f 1//3 2//3 7//3 6//3
f 4//4 5//4 10//4 9//4
f 2//5 3//5 8//5 7//5
f 5//2 1//2 6//2 10//2
f 3//6 4//6 9//6 8//6
